# xmcd CD database file
#
# Track frame offsets:
#	150
#	16257
#	31660
#	46782
#	67837
#	87787
#	100190
#	114495
#	131482
#	146990
#	164397
#	189522
#	200547
#	222637
#	251930
#
# Disc length: 3697 seconds
#
# Revision: 2
# Processed by: cddbd v1.5.2PL0 Copyright (c) Steve Scherf et al.
# Submitted via: CDex 1.51
#
DISCID=d10e6f0f
DTITLE=Witherspoon Jimmy - Witherspoon Jimmy The 'Spoon Concerts
DYEAR=2002
DGENRE=Jazz
TTITLE0=Time's Gettin' Tougher Than Tough
TTITLE1=How Long Blues
TTITLE2=Corina, Corina
TTITLE3=C.C. Rider
TTITLE4=Roll 'Em Pete
TTITLE5=Every Day
TTITLE6=Goin0 To Kansas City
TTITLE7=Outskirts Of Town
TTITLE8=Trouble In Mind
TTITLE9=St. Louis Blues
TTITLE10=No Rollin' Blues
TTITLE11=Good Rockin' Tonight
TTITLE12=Big Fine Girl
TTITLE13=Ain't Nobody's Business
TTITLE14=When I Been Drinkin'
EXTD=YEAR: 2002
EXTT0=
EXTT1=
EXTT2=
EXTT3=
EXTT4=
EXTT5=
EXTT6=
EXTT7=
EXTT8=
EXTT9=
EXTT10=
EXTT11=
EXTT12=
EXTT13=
EXTT14=
PLAYORDER=
